HIERARCHY
ROOT Hips
{
	OFFSET 0.00 0.00 0.00
	CHANNELS 6 Xposition Yposition Zposition Xrotation Yrotation Zrotation
	JOINT RightUpLeg
	{
		OFFSET -3.76699 0.00000 0.00000
		CHANNELS 3 Xrotation Yrotation Zrotation
		JOINT RightLeg
		{
			OFFSET 0.00000 -18.01768 0.00000
			CHANNELS 3 Xrotation Yrotation Zrotation
			JOINT RightFoot
			{
				OFFSET 0.00000 -16.88108 0.00000
				CHANNELS 3 Xrotation Yrotation Zrotation
				JOINT RightToeBase
				{
					OFFSET 0.00000 -1.49359 5.57418
					CHANNELS 3 Xrotation Yrotation Zrotation
					End Site
					{
						OFFSET 0.00000 0.00000 2.95275
					}
				}
			}
		}
	}
	JOINT LeftUpLeg
	{
		OFFSET 3.76699 0.00000 0.00000
		CHANNELS 3 Xrotation Yrotation Zrotation
		JOINT LeftLeg
		{
			OFFSET 0.00000 -18.01768 0.00000
			CHANNELS 3 Xrotation Yrotation Zrotation
			JOINT LeftFoot
			{
				OFFSET 0.00000 -16.88108 0.00000
				CHANNELS 3 Xrotation Yrotation Zrotation
				JOINT LeftToeBase
				{
					OFFSET 0.00000 -1.49359 5.57418
					CHANNELS 3 Xrotation Yrotation Zrotation
					End Site
					{
						OFFSET 0.00000 0.00000 2.95275
					}
				}
			}
		}
	}
	JOINT Spine
	{
		OFFSET 0.00000 7.77970 0.00000
		CHANNELS 3 Xrotation Yrotation Zrotation
		JOINT RightShoulder
		{
			OFFSET 0.00000 10.94176 0.00000
			CHANNELS 3 Xrotation Yrotation Zrotation
			JOINT RightArm
			{
				OFFSET -7.70894 0.00000 0.00000
				CHANNELS 3 Xrotation Yrotation Zrotation
				JOINT RightForeArm
				{
					OFFSET -11.52135 0.00000 0.00000
					CHANNELS 3 Yrotation Zrotation Xrotation
					JOINT RightHand
					{
						OFFSET -10.17590 0.00000 0.00000
						CHANNELS 3 Xrotation Yrotation Zrotation
						End Site
						{
							OFFSET -3.93700 0.00000 0.00000
						}
						JOINT RightHandThumb1
						{
							OFFSET 0.00000 0.00000 0.00000
							CHANNELS 3 Xrotation Zrotation Yrotation
							End Site
							{
								OFFSET 0.00000 0.00000 3.93700
							}
						}
					}
				}
			}
		}
		JOINT LeftShoulder
		{
			OFFSET 0.00000 10.94176 0.00000
			CHANNELS 3 Xrotation Yrotation Zrotation
			JOINT LeftArm
			{
				OFFSET 7.70894 0.00000 0.00000
				CHANNELS 3 Xrotation Yrotation Zrotation
				JOINT LeftForeArm
				{
					OFFSET 11.52135 0.00000 0.00000
					CHANNELS 3 Yrotation Zrotation Xrotation
					JOINT LeftHand
					{
						OFFSET 10.17590 0.00000 0.00000
						CHANNELS 3 Xrotation Yrotation Zrotation
						End Site
						{
							OFFSET 3.93700 0.00000 0.00000
						}
						JOINT LeftHandThumb1
						{
							OFFSET 0.00000 0.00000 0.00000
							CHANNELS 3 Xrotation Zrotation Yrotation
							End Site
							{
								OFFSET 0.00000 0.00000 3.93700
							}
						}
					}
				}
			}
		}
		JOINT Head
		{
			OFFSET 0.00000 16.64604 0.00000
			CHANNELS 3 Xrotation Yrotation Zrotation
			End Site
			{
				OFFSET 0.00000 4.52755 0.00000
			}
		}
	}
}
MOTION
Frames: 15
Frame Time: 0.008333
 1.6566 37.2511 3.2183 -2.6317 -4.6566 1.7223 10.1700 -0.8699 -4.1275 -5.1263 -0.0000 -0.0000 -6.7481 -18.1840 11.1003 14.3229 -0.0000 0.0000 8.8650 3.5902 0.6163 -2.3489 0.0000 0.0000 -4.3407 17.0708 -13.0893 9.0511 0.0000 0.0000 7.1118 -3.1726 -2.2653 4.7117 -11.0144 -30.0394 -29.4535 -9.2887 24.2401 18.3794 0.0000 -5.9685 -0.1049 1.3055 4.5949 32.8623 0.0000 -24.3270 23.6246 34.5983 16.6552 -61.3195 5.9531 -28.3335 -4.4316 0.0000 34.2885 2.5495 19.0041 -7.7861 33.1476 -0.0000 26.2537 5.1725 12.6017 2.9702
 1.6556 37.2507 3.2193 -2.5977 -4.6906 1.7187 10.1414 -0.8534 -4.1255 -5.1384 -0.0000 -0.0000 -6.7429 -18.1627 11.1107 14.3320 -0.0000 -0.0000 8.8539 3.5878 0.6171 -2.3810 -0.0000 0.0000 -4.3113 17.1188 -13.1439 8.9739 -0.0000 0.0000 7.0797 -3.1585 -2.2772 4.7137 -10.9999 -30.0361 -29.4524 -9.2721 24.2336 18.3698 0.0000 -5.9821 -0.1056 1.3172 4.5852 32.8623 0.0000 -24.3270 23.6273 34.6110 16.6504 -61.2914 5.9543 -28.3114 -4.4336 0.0000 34.2990 2.5563 18.9777 -7.8170 33.1476 -0.0000 26.2537 5.2397 12.5846 2.9758
 1.6551 37.2506 3.2215 -2.5727 -4.7207 1.7199 10.1278 -0.8601 -4.1275 -5.1687 -0.0000 -0.0000 -6.7184 -18.1382 11.1349 14.3462 0.0000 -0.0000 8.8478 3.6189 0.6126 -2.4035 -0.0000 0.0000 -4.3242 17.1201 -13.0981 9.0619 0.0000 -0.0000 7.0597 -3.1306 -2.2959 4.7290 -11.0225 -30.0208 -29.4708 -9.2424 24.2276 18.3705 0.0000 -5.9881 -0.1043 1.3053 4.5670 32.8623 0.0000 -24.3270 23.6591 34.6246 16.6341 -61.3403 5.9565 -28.2984 -4.4079 0.0000 34.3222 2.5473 18.9497 -7.8009 33.1476 -0.0000 26.2537 5.2977 12.5552 2.9909
 1.6544 37.2502 3.2232 -2.5440 -4.7508 1.7188 10.1087 -0.8357 -4.1278 -5.1918 0.0000 -0.0000 -6.7052 -18.1378 11.1323 14.3766 0.0000 -0.0000 8.8423 3.6218 0.6108 -2.4344 -0.0000 -0.0000 -4.3129 17.1462 -13.0771 9.0290 0.0000 -0.0000 7.0283 -3.1200 -2.3118 4.7596 -11.0265 -30.0076 -29.4986 -9.2234 24.2203 18.3870 0.0000 -6.0040 -0.1137 1.4538 4.4707 32.8623 0.0000 -24.3270 23.6688 34.6392 16.6320 -61.3388 5.9670 -28.2847 -4.4039 0.0000 34.3592 2.5436 18.9316 -7.7968 33.1476 -0.0000 26.2537 5.3861 12.5439 2.9987
 1.6534 37.2502 3.2244 -2.5045 -4.7815 1.7175 10.0718 -0.8273 -4.1245 -5.2060 0.0000 0.0000 -6.6956 -18.1284 11.1508 14.3719 0.0000 -0.0000 8.8231 3.6213 0.6110 -2.4618 -0.0000 -0.0000 -4.2954 17.1652 -13.0345 8.9846 -0.0000 0.0000 6.9794 -3.1023 -2.3222 4.7756 -11.0262 -30.0109 -29.5083 -9.2106 24.2263 18.4002 0.0000 -5.9827 -0.1183 1.5245 4.4379 32.8623 0.0000 -24.3270 23.6652 34.6266 16.6401 -61.2906 5.9666 -28.2639 -4.3995 0.0000 34.3524 2.5360 18.9565 -7.7641 33.1476 -0.0000 26.2537 5.4816 12.5485 3.0008
 1.6550 37.2495 3.2270 -2.4891 -4.8137 1.7281 10.0271 -0.8998 -4.1345 -5.1605 -0.0000 0.0000 -6.7281 -18.0358 11.1070 14.3525 0.0000 0.0000 8.8305 3.6316 0.5912 -2.4889 0.0000 0.0000 -4.2907 17.1959 -13.0539 9.0266 0.0000 0.0000 6.9603 -3.0900 -2.3424 4.7834 -11.0234 -30.0155 -29.5198 -9.1875 24.2296 18.4114 0.0000 -5.9670 -0.1168 1.5060 4.4340 32.8623 0.0000 -24.3270 23.6941 34.6294 16.6208 -61.2754 5.9473 -28.2490 -4.3716 0.0000 34.3409 2.5166 18.9340 -7.7140 33.1476 -0.0000 26.2537 5.5797 12.5162 2.9716
 1.6547 37.2492 3.2300 -2.4728 -4.8354 1.7289 10.0199 -0.9124 -4.1350 -5.1800 0.0000 0.0000 -6.7140 -18.0103 11.0981 14.3519 -0.0000 -0.0000 8.8405 3.6117 0.5849 -2.5270 -0.0000 -0.0000 -4.2795 17.2543 -13.0217 9.0326 0.0000 -0.0000 6.9349 -3.0746 -2.3498 4.7999 -11.0257 -30.0282 -29.5324 -9.1846 24.2437 18.4325 0.0000 -5.9268 -0.1148 1.4581 4.5020 32.8623 0.0000 -24.3270 23.7099 34.6114 16.6166 -61.2552 5.9446 -28.2349 -4.3628 0.0000 34.3316 2.5203 18.9709 -7.7109 33.1476 -0.0000 26.2537 5.6863 12.5093 2.9467
 1.6541 37.2487 3.2332 -2.4619 -4.8641 1.7322 10.0252 -0.8813 -4.1403 -5.2035 0.0000 -0.0000 -6.7057 -18.0214 11.0977 14.3441 0.0000 -0.0000 8.8570 3.6074 0.5773 -2.5607 0.0000 0.0000 -4.2652 17.2812 -13.0171 9.0725 0.0000 -0.0000 6.9138 -3.0698 -2.3669 4.8291 -11.0245 -30.0160 -29.5478 -9.1403 24.2395 18.4421 0.0000 -5.9701 -0.1092 1.3989 4.4647 32.8623 0.0000 -24.3270 23.7412 34.6245 16.6077 -61.2434 5.9333 -28.2363 -4.3430 0.0000 34.2764 2.5159 18.9972 -7.6873 33.1476 -0.0000 26.2537 5.8072 12.5086 2.9281
 1.6505 37.2485 3.2364 -2.4499 -4.8954 1.7156 10.0612 -0.7795 -4.1273 -5.2849 -0.0000 -0.0000 -6.6582 -18.0835 11.1187 14.3499 0.0000 -0.0000 8.8670 3.6347 0.5939 -2.5893 -0.0000 0.0000 -4.2544 17.2945 -13.0199 9.0454 0.0000 -0.0000 6.8914 -3.0503 -2.3642 4.8542 -11.0260 -30.0158 -29.5548 -9.1103 24.2490 18.4515 0.0000 -6.0029 -0.1079 1.3904 4.4371 32.8623 0.0000 -24.3270 23.7567 34.6289 16.6092 -61.2303 5.9229 -28.2386 -4.3266 0.0000 34.2451 2.5228 18.9995 -7.7073 33.1476 -0.0000 26.2537 5.9392 12.4913 2.8941
 1.6519 37.2476 3.2419 -2.4631 -4.9203 1.7244 10.0549 -0.8554 -4.1391 -5.2463 0.0000 0.0000 -6.7024 -18.0060 11.0595 14.3812 -0.0000 0.0000 8.9120 3.6257 0.5746 -2.6281 0.0000 -0.0000 -4.2532 17.3283 -12.9952 9.0885 -0.0000 0.0000 6.8968 -3.0466 -2.3719 4.8597 -11.0115 -30.0514 -29.5571 -9.1057 24.2749 18.4746 0.0000 -6.0275 -0.1116 1.4708 4.3400 32.8623 0.0000 -24.3270 23.7632 34.6124 16.6017 -61.1965 5.9196 -28.2208 -4.3003 0.0000 34.2662 2.5232 18.9253 -7.7373 33.1476 -0.0000 26.2537 6.0569 12.5851 2.8640
 1.6479 37.2474 3.2452 -2.4591 -4.9541 1.7093 10.0922 -0.7501 -4.1278 -5.3114 0.0000 0.0000 -6.6563 -18.0772 11.0679 14.3754 -0.0000 -0.0000 8.9296 3.6395 0.5902 -2.6520 0.0000 -0.0000 -4.2442 17.3543 -13.0081 9.0754 -0.0000 -0.0000 6.8860 -3.0176 -2.3818 4.8257 -10.9780 -30.0433 -29.4422 -9.0598 24.2719 18.4838 0.0000 -6.0590 -0.1155 1.4781 4.4675 32.8623 0.0000 -24.3270 23.7928 34.6459 16.6109 -61.2315 5.9115 -28.2647 -4.2920 0.0000 34.1857 2.5157 18.9405 -7.7085 33.1476 -0.0000 26.2537 6.1909 12.4750 2.7991
 1.6489 37.2460 3.2502 -2.4697 -4.9811 1.7262 10.0808 -0.8191 -4.1439 -5.2727 0.0000 -0.0000 -6.7096 -18.0069 11.0333 14.4133 -0.0000 0.0000 8.9682 3.6325 0.5652 -2.6822 -0.0000 0.0000 -4.2396 17.3883 -13.0063 9.0590 -0.0000 0.0000 6.8866 -3.0033 -2.4173 4.8328 -10.9598 -30.0437 -29.4262 -9.0436 24.2741 18.4983 0.0000 -6.0910 -0.1180 1.5426 4.3742 32.8623 0.0000 -24.3270 23.7812 34.6547 16.6345 -61.2135 5.9038 -28.2869 -4.2922 0.0000 34.1455 2.5140 18.9411 -7.7033 33.1476 -0.0000 26.2537 6.3203 12.4605 2.7558
 1.6477 37.2453 3.2539 -2.4741 -5.0095 1.7196 10.0873 -0.8081 -4.1396 -5.2743 0.0000 -0.0000 -6.6976 -17.9891 11.0015 14.3427 0.0000 0.0000 8.9933 3.6212 0.5668 -2.7015 -0.0000 -0.0000 -4.2244 17.4345 -13.0487 9.0236 -0.0000 0.0000 6.8854 -2.9915 -2.4209 4.8490 -10.9579 -30.0434 -29.4484 -9.0166 24.2813 18.5151 0.0000 -6.0549 -0.1178 1.5331 4.3941 32.8623 0.0000 -24.3270 23.7907 34.6673 16.6228 -61.2383 5.8948 -28.2958 -4.2815 0.0000 34.1595 2.5130 18.8534 -7.7343 33.1476 -0.0000 26.2537 6.4318 12.4897 2.7306
 1.6440 37.2449 3.2576 -2.4797 -5.0375 1.6978 10.1397 -0.6999 -4.1216 -5.3495 0.0000 -0.0000 -6.6605 -18.0671 11.0097 14.3715 -0.0000 -0.0000 9.0172 3.6331 0.5896 -2.7206 0.0000 -0.0000 -4.2388 17.4397 -12.9872 9.0457 0.0000 0.0000 6.8863 -2.9681 -2.4119 4.8435 -10.9415 -30.0362 -29.4130 -8.9859 24.2773 18.5384 0.0000 -6.0349 -0.1101 1.3966 4.5069 32.8623 0.0000 -24.3270 23.7784 34.6696 16.6318 -61.2219 5.8768 -28.3164 -4.2845 0.0000 34.1530 2.5308 18.8217 -7.8011 33.1476 -0.0000 26.2537 6.5477 12.5129 2.6893
 1.6441 37.2441 3.2620 -2.4941 -5.0583 1.6977 10.1150 -0.7861 -4.1198 -5.2770 -0.0000 -0.0000 -6.7162 -17.9728 11.0034 14.4093 -0.0000 -0.0000 9.0531 3.6069 0.5852 -2.7402 -0.0000 0.0000 -4.2232 17.4876 -13.0367 9.0312 -0.0000 -0.0000 6.8913 -2.9579 -2.4235 4.8428 -10.9153 -30.0511 -29.4355 -9.0145 24.3003 18.5788 0.0000 -6.0066 -0.1122 1.4216 4.5149 32.8623 0.0000 -24.3270 23.7886 34.6773 16.6393 -61.2501 5.8942 -28.3435 -4.3067 0.0000 34.1810 2.4946 18.7822 -7.7059 33.1476 -0.0000 26.2537 6.6732 12.5237 2.6383
